<svg xmlns="http://www.w3.org/2000/svg" viewBox="0 0 134 148"><g fill="none"><path fill="#86BC25" d="M70.448 125.712v-14.688a3.408 3.408 0 0 0-6.816 0v14.688a11.327 11.327 0 0 0 3.408 22.131 11.328 11.328 0 0 0 3.408-22.131m-3.408 15.312a4.529 4.529 0 1 1 .032 0"/><path fill="#CEB302" d="M114.8 96.128 102.16 88.8a3.41 3.41 0 0 0-5.393 2.904 3.409 3.409 0 0 0 2.033 2.984l12.704 7.328a11.343 11.343 0 0 0 20.997 7.887A11.343 11.343 0 0 0 114.8 96.128m11.568 10.608a4.511 4.511 0 1 1-1.6-6.176 4.527 4.527 0 0 1 1.6 6.176"/><path fill="#F39200" d="M17.2 30.608A11.328 11.328 0 1 0 19.216 48.8l12.704 7.328a3.408 3.408 0 1 0 3.408-5.888l-12.704-7.344A11.344 11.344 0 0 0 17.2 30.608m-3.392 5.888a4.529 4.529 0 1 1-4.567 7.822 4.529 4.529 0 0 1 4.567-7.822"/><path fill="#CF69A6" d="M111.456 42.864 98.8 50.208a3.407 3.407 0 1 0 3.408 5.888L114.8 48.8a11.312 11.312 0 1 0-3.408-5.904m14.976-4.704a4.512 4.512 0 1 1-6.176-1.6 4.527 4.527 0 0 1 6.176 1.6"/><path fill="#63C3D1" d="M5.888 94.672a11.328 11.328 0 1 0 16.736 7.344l12.704-7.328A3.407 3.407 0 1 0 31.92 88.8l-12.704 7.344a11.359 11.359 0 0 0-13.328-1.456m3.408 5.888a4.527 4.527 0 0 1 6.694 5.029 4.526 4.526 0 0 1-8.294 1.147 4.527 4.527 0 0 1 1.6-6.176"/><path fill="#83929B" d="M96.88 71.2a29.312 29.312 0 1 1-29.312-29.248c16.164 0 29.277 13.084 29.312 29.248"/><path fill="#FFF" d="m83.008 73.776 1.168.56 1.504.736c.544.256 1.072.528 1.6.8s1.008.544 1.424.8c.352.203.684.438.992.704.24.208.352.384.304.528-.048.144-.4.496-.912.624a8.156 8.156 0 0 1-1.808.224c-.714.04-1.43.04-2.144 0a15.832 15.832 0 0 1-1.904-.256c-.528-.096-1.12-.24-1.776-.4a16.33 16.33 0 0 1-1.824-.576c-.56-.208-1.344-.464-2.016-.736.24.448.496.88.752 1.296l.752 1.104c.254.374.537.727.848 1.056.37.419.765.814 1.184 1.184a30.18 30.18 0 0 1 1.6 1.6 13.4 13.4 0 0 1 1.312 1.6c.352.496.464.88.336 1.136-.128.256-.48.368-1.072.352a8.28 8.28 0 0 1-2.016-.288 15.249 15.249 0 0 1-2.304-.736A9.448 9.448 0 0 1 77.088 84c-.504-.354-.99-.733-1.456-1.136a30.582 30.582 0 0 1-1.2-1.072 23.379 23.379 0 0 1-1.072-1.104c0 .576.096 1.12.128 1.6.024.469.024.939 0 1.408v1.2c0 .336 0 .704-.112 1.168-.043.446-.113.89-.208 1.328a5.78 5.78 0 0 1-.352 1.12.819.819 0 0 1-.576.528.864.864 0 0 1-.64-.24 5.214 5.214 0 0 1-.832-.848A8.806 8.806 0 0 1 70 86.816a5.567 5.567 0 0 1-.56-1.232 14.938 14.938 0 0 1-.368-1.28c-.112-.448-.192-.848-.272-1.232l-.24-1.344-.848 1.6c-.256.48-.512.992-.768 1.6-.256.608-.496 1.072-.704 1.6-.208.528-.32.752-.512 1.28s-.432 1.088-.688 1.696l-.8 1.808a14.837 14.837 0 0 1-.8 1.6 7.763 7.763 0 0 1-.784 1.168c-.256.288-.48.416-.656.384-.176-.032-.528-.352-.704-.928a11.323 11.323 0 0 1-.4-2.16 22.038 22.038 0 0 1 0-2.768c.009-.92.078-1.84.208-2.752.102-.779.263-1.55.48-2.304.177-.597.386-1.185.624-1.76a9.186 9.186 0 0 1 .752-1.488l-1.6.912-1.296.752-.992.56-.8.384c-.281.129-.57.24-.864.336-.276.083-.56.136-.848.16a1.98 1.98 0 0 1-.72 0c-.208 0-.256-.256-.176-.624a6.65 6.65 0 0 1 .48-1.2c.223-.453.474-.89.752-1.312.198-.332.423-.648.672-.944.176-.208.368-.448.608-.704.24-.256.464-.528.688-.768l.72-.848-2.096.64-1.888.48c-.526.156-1.06.284-1.6.384l-1.408.192c-.592 0-1.168.08-1.744.08-.535.006-1.07-.026-1.6-.096-.448 0-.688-.208-.752-.384-.064-.176 0-.288.128-.512.128-.224.368-.448.624-.736s.576-.544.928-.848l1.056-.88 1.04-.816.832-.608 1.264-.8 1.456-.848 1.696-.912a16.511 16.511 0 0 1-2.096-.144c-.64-.096-1.36-.256-2.16-.448a14.214 14.214 0 0 1-2.464-.96 14.94 14.94 0 0 1-3.792-2.608 9.278 9.278 0 0 1-1.312-1.6 1.41 1.41 0 0 1-.272-1.28c.128-.299.464-.443 1.008-.432.651.04 1.299.132 1.936.272.752.176 1.6.368 2.336.592.72.203 1.453.363 2.192.48.656.112 1.328.192 2 .272l1.888.192 1.952.144a4.339 4.339 0 0 1-.56-.48l-.592-.544c-.249-.27-.484-.554-.704-.848a10.206 10.206 0 0 1-.768-1.152c-.272-.48-.528-.944-.736-1.408a6.458 6.458 0 0 1-.448-1.28c0-.384 0-.64.128-.768a.865.865 0 0 1 .784-.128c.346.107.683.24 1.008.4.368.192.736.4 1.104.64.327.23.676.428 1.04.592.383.208.785.38 1.2.512l1.056.336 1.008.24c-.288-.704-.544-1.424-.8-2.128a31.509 31.509 0 0 1-.656-1.968c-.208-.704-.416-1.36-.56-1.968a26.956 26.956 0 0 1-.4-2.24 23.791 23.791 0 0 1-.224-2.544c-.043-.713.01-1.43.16-2.128.128-.608.384-.944.768-.992.384-.048.624.16 1.008.64.438.534.834 1.101 1.184 1.696.384.672.768 1.376 1.104 2.096l.864 1.76c.192.464.48 1.024.816 1.6.336.576.688 1.264 1.04 1.856.352.592.8 1.408 1.216 2.176l.864-1.872c.192-.464.4-.88.576-1.232.176-.352.384-.72.608-1.088.224-.368.544-.832.944-1.408l.992-1.296c.384-.48.768-.96 1.184-1.44.391-.486.808-.95 1.248-1.392.432-.432.832-.816 1.216-1.152a4.796 4.796 0 0 1 1.072-.704.87.87 0 0 1 .8 0c.224.096.304.416.24.96-.08.64-.22 1.273-.416 1.888a34.558 34.558 0 0 1-.72 2.256c-.256.784-.48 1.472-.672 2.032-.192.56-.384 1.264-.624 2s-.464 1.44-.688 2.096l-.72 2.352c.448-.48.88-.928 1.312-1.344.432-.416.704-.736 1.088-1.12.384-.384.704-.688.944-.96s.528-.544.848-.912c.32-.368.64-.72.96-1.04.296-.3.617-.572.96-.816.243-.185.544-.276.848-.256.256 0 .4.272.4.688.008.505-.04 1.01-.144 1.504a17.88 17.88 0 0 1-.464 1.808c-.192.64-.352 1.168-.496 1.6-.144.432-.352.976-.576 1.6a19.492 19.492 0 0 1-.624 1.52c-.208.464-.464 1.104-.736 1.68l1.744.096h1.76c.64 0 1.28 0 1.936-.128.656-.128 1.344-.16 2.08-.288l2.08-.4a16.093 16.093 0 0 1 1.68-.224c.48 0 .8 0 .944.224a.91.91 0 0 1 0 1.008 5.702 5.702 0 0 1-1.024 1.28c-.501.475-1.036.914-1.6 1.312-.603.411-1.24.77-1.904 1.072-.6.259-1.221.467-1.856.624-.736.192-1.456.352-2.16.496-.704.144-1.6.304-2.576.432l1.28.912c.4.272.816.544 1.296.832.45.275.915.526 1.392.752M63.6 75.76c.277-.216.469-.521.544-.864a2.02 2.02 0 0 0 0-.928 2.66 2.66 0 0 0-.368-.848 8.06 8.06 0 0 0-.448-.624 2.792 2.792 0 0 0-.624-.448 2.994 2.994 0 0 0-.752-.272 2.066 2.066 0 0 0-.768 0c-.254.038-.49.156-.672.336-.182.17-.315.385-.384.624-.09.258-.138.527-.144.8-.016.291.017.583.096.864.054.266.175.514.352.72.175.253.392.474.64.656.233.192.506.33.8.4.295.064.6.064.896 0 .325-.063.625-.219.864-.448m-2.992-9.6a2.54 2.54 0 0 0-.304.528 2.623 2.623 0 0 0-.208.736c-.024.26-.024.523 0 .784.045.261.161.505.336.704.136.165.32.283.528.336.232.049.472.049.704 0 .253-.047.5-.122.736-.224.223-.107.428-.247.608-.416.387-.374.581-.905.528-1.44a2.368 2.368 0 0 0-.496-1.312 1.071 1.071 0 0 0-.544-.368 1.512 1.512 0 0 0-.656 0 1.9 1.9 0 0 0-.672.24 2.01 2.01 0 0 0-.576.448m4 5.744c.255.407.614.738 1.04.96.404.209.844.34 1.296.384a3.7 3.7 0 0 0 1.376-.144c.467-.14.906-.362 1.296-.656a3.819 3.819 0 0 0 1.008-1.088c.236-.408.389-.86.448-1.328a3.619 3.619 0 0 0 0-1.376 3.077 3.077 0 0 0-.608-1.232 3.199 3.199 0 0 0-2.352-1.216 3.511 3.511 0 0 0-1.328.208c-.46.13-.894.34-1.28.624-.374.271-.686.62-.912 1.024-.22.393-.371.82-.448 1.264-.088.45-.088.91 0 1.36.093.454.279.884.544 1.264m.24-8.88a1.3 1.3 0 0 0-.192.528 1.61 1.61 0 0 0 0 .656c.05.226.148.44.288.624.152.208.364.364.608.448.372.1.764.1 1.136 0a2.587 2.587 0 0 0 1.36-.784c.346-.328.498-.813.4-1.28a1.456 1.456 0 0 0-.816-1.04 1.97 1.97 0 0 0-.656-.144 2.641 2.641 0 0 0-.784 0 2.123 2.123 0 0 0-.768.32c-.244.15-.451.352-.608.592m4.944 15.744c.347-.063.679-.194.976-.384.292-.175.539-.416.72-.704.176-.28.28-.598.304-.928.028-.37-.061-.74-.256-1.056a2.236 2.236 0 0 0-1.6-1.2 3.99 3.99 0 0 0-2.256.304 2.322 2.322 0 0 0-1.312 1.232 1.807 1.807 0 0 0 0 1.6c.228.519.646.93 1.168 1.152a3.539 3.539 0 0 0 2.304 0M71.6 66.64a1.97 1.97 0 0 0 1.6.4 1.906 1.906 0 0 0 1.344-.832c.234-.298.327-.684.256-1.056a3.47 3.47 0 0 0-.288-1.104 2.126 2.126 0 0 0-2.912-.944 1.486 1.486 0 0 0-.688.544 1.889 1.889 0 0 0-.352.912 2.143 2.143 0 0 0 .944 2.08m4.8 6.016c.108-.292.167-.6.176-.912a3.836 3.836 0 0 0-.112-.96 2.394 2.394 0 0 0-.416-.832c-.2-.26-.465-.464-.768-.592a1.6 1.6 0 0 0-1.6.16 3.436 3.436 0 0 0-1.12 1.52 2.125 2.125 0 0 0 0 1.712c.211.509.582.936 1.056 1.216.235.14.497.227.768.256a1.6 1.6 0 0 0 .784-.096c.281-.095.53-.267.72-.496.238-.293.427-.623.56-.976"/><path fill="#83929B" d="M43.84 15.984V.112h6.624a7.408 7.408 0 0 1 7.552 7.76c0 4.64-3.088 8.112-7.504 8.112H43.84zm4.208-12.4v8.848h1.824c2.448 0 3.952-1.952 3.952-4.624A3.921 3.921 0 0 0 50 3.584h-1.952zm14.512 12.4h-4.416L64.032.144h4.8l5.888 15.872h-4.528l-1.088-2.944H63.6l-1.04 2.912zm3.792-10.976-1.696 4.8h3.376l-1.68-4.8zM73.168.112h4.592l4.032 10.368L85.728.112h4.512l-6.592 15.872H79.76zM48.736 24.176h-3.92a5.488 5.488 0 0 1 5.824-5.264c2.928 0 5.84 1.696 5.84 4.72a3.553 3.553 0 0 1-1.936 3.28 4.496 4.496 0 0 1 2.96 4.448c0 3.328-3.2 5.408-6.592 5.408-3.392 0-6.832-2.112-6.832-6.016h4.304a2.194 2.194 0 0 0 2.416 2.48 2.095 2.095 0 0 0 2.256-2.224c0-1.712-1.28-2.368-3.072-2.368H49.2v-2.816h.752c1.6 0 2.576-.32 2.576-1.904a1.775 1.775 0 0 0-1.84-1.824 1.95 1.95 0 0 0-1.904 2.08M58.8 30.544a9.023 9.023 0 0 1 2.528-5.84L65.2 19.52h5.472l-4.976 5.616a6.657 6.657 0 0 1 1.76-.304 5.504 5.504 0 0 1 5.328 5.648c0 4.224-3.392 6.288-7.088 6.288-3.872 0-6.896-2.368-6.896-6.224M65.712 28a2.627 2.627 0 0 0-2.688 2.624A2.72 2.72 0 1 0 65.712 28m8.192.096c0-5.616 3.36-9.184 8.144-9.184 4.784 0 8 3.632 8 8.784 0 5.152-3.2 9.088-8 9.088a8.18 8.18 0 0 1-5.95-2.584 8.18 8.18 0 0 1-2.194-6.104m8-5.44c-2.512 0-3.664 2.112-3.664 5.264s1.376 5.136 3.872 5.136 3.616-2.112 3.616-5.232-1.328-5.168-3.824-5.168"/></g></svg>